<svg width="105" height="94" viewBox="0 0 105 94" fill="none" xmlns="http://www.w3.org/2000/svg">
<g filter="url(#filter0_i_444_83)">
<path d="M17.14 16.4546L26.7386 3.42799L46.6213 2.05676L76.7882 2.74237L102.841 46.6215L93.2429 66.5042L78.8451 89.1294L71.9889 91.8719H51.4206H32.9091L23.9961 87.7582L4.11341 53.4776L2.74219 44.5647L6.85586 33.5949L17.14 16.4546Z" fill="url(#paint0_linear_444_83)"/>
</g>
<path d="M52.0335 0.0115703C58.3472 0.0115703 64.6609 -0.0085615 70.9745 0.0216342C73.4808 0.0218485 75.9434 0.678347 78.1172 1.9258C79.5126 2.7379 80.7585 3.78301 81.8011 5.01582C83.3264 6.79279 84.3677 8.85069 85.5279 10.8463C86.2783 12.1347 87.0514 13.4084 87.7954 14.7013C89.07 16.9148 90.3236 19.141 91.5991 21.3535C92.3732 22.6968 93.1794 24.0208 93.9562 25.3613C95.1631 27.4412 96.3499 29.532 97.5586 31.61C98.7482 33.6615 99.9688 35.6983 101.162 37.7498C102.513 40.0731 103.737 42.4585 104.095 45.1615C104.279 46.5219 104.248 47.9027 104.003 49.2535C103.651 51.1906 102.946 52.9895 101.99 54.6933C101.28 55.9615 100.506 57.194 99.7702 58.4449C99.2331 59.3599 98.718 60.2887 98.1836 61.2073C97.2997 62.7281 96.4039 64.2425 95.5218 65.765C94.7468 67.1037 93.9855 68.4497 93.2141 69.7911C92.3064 71.3677 91.3905 72.9388 90.4855 74.5172C89.2649 76.6483 88.0534 78.7849 86.8337 80.9169C85.8272 82.6783 84.8636 84.4672 83.7921 86.1883C82.1634 88.8053 80.1073 91.0087 77.2955 92.3986C76.0355 93.0208 74.706 93.4051 73.3206 93.6494C71.2975 94.0035 69.2616 94.0008 67.2202 93.9999C56.5449 93.9932 45.8718 93.9901 35.2008 93.9907C33.3461 93.9907 31.495 93.8645 29.686 93.4115C27.22 92.8059 24.9689 91.5318 23.1802 89.7295C21.9751 88.5253 20.9951 87.1171 20.1396 85.6339C19.0415 83.7361 17.9478 81.8374 16.8583 79.9378C15.5699 77.696 14.2962 75.4469 12.996 73.2088C11.8376 71.2085 10.6544 69.222 9.49144 67.2236C8.64962 65.7769 7.82885 64.3184 6.98886 62.8699C5.79933 60.8157 4.58875 58.7725 3.40563 56.7137C2.72302 55.5241 2.0029 54.3538 1.42827 53.1149C0.254295 50.5848 -0.260869 47.8992 0.128015 45.1249C0.439095 42.9506 1.19878 40.8648 2.35884 38.9997C3.13661 37.7333 3.85033 36.4267 4.59699 35.1411C5.90822 32.8856 7.22859 30.6346 8.53158 28.3773C9.36791 26.9324 10.1786 25.473 11.0168 24.0291C11.8229 22.6382 12.6583 21.2639 13.4626 19.8721C14.2669 18.4804 15.0429 17.0703 15.8417 15.6777C16.6762 14.2328 17.5326 12.7999 18.3717 11.3588C19.1513 10.0201 19.8998 8.66401 20.6995 7.33815C22.6595 4.08707 25.389 1.75651 29.0574 0.670382C30.3265 0.296138 31.6816 0.0472517 33.0002 0.0298663C39.3477 -0.02412 45.6915 0.0115703 52.0335 0.0115703ZM52.19 89.7203V89.6846C58.5952 89.6846 64.9958 89.735 71.3973 89.6636C74.6392 89.627 77.2534 88.1538 79.1868 85.5634C79.9106 84.5953 80.5081 83.5284 81.1194 82.4807C82.4965 80.1227 83.8452 77.7482 85.2077 75.381C85.9644 74.0661 86.7193 72.7494 87.4888 71.4418C88.2584 70.1343 89.0645 68.8478 89.823 67.5347C90.674 66.0624 91.4783 64.5645 92.3247 63.0895C93.6991 60.6928 95.0832 58.3021 96.4771 55.9176C96.8275 55.3155 97.2265 54.7418 97.5586 54.1305C98.1827 52.9813 98.9111 51.8631 99.3512 50.6443C100.412 47.7089 100.285 44.7973 98.7665 42.0083C98.2422 41.0476 97.738 40.0749 97.2027 39.1205C96.5317 37.9267 95.8488 36.7399 95.154 35.5602C93.9544 33.5133 92.731 31.4792 91.5405 29.4295C90.3034 27.2966 89.1011 25.1445 87.8704 23.0088C86.7004 20.9781 85.5206 18.9531 84.3311 16.934C82.7755 14.2804 81.2639 11.6067 79.6498 8.99343C78.345 6.88064 76.4839 5.41935 74.0737 4.68458C72.5694 4.22707 71.0331 4.13009 69.4794 4.13009C57.8324 4.13009 46.1844 4.13283 34.5356 4.13832C33.3798 4.14352 32.2265 4.24297 31.0869 4.4357C29.3703 4.72302 27.8843 5.52091 26.574 6.68665C25.3735 7.75357 24.4694 9.01539 23.6853 10.409C22.4262 12.6581 21.0893 14.8651 19.7955 17.095C19.3234 17.9085 18.8951 18.7476 18.4175 19.5574C17.6177 20.9134 16.7869 22.2512 15.9826 23.6045C15.4272 24.5415 14.8956 25.4931 14.352 26.4411C13.868 27.2829 13.3785 28.121 12.8962 28.9647C12.4296 29.7791 11.9812 30.6017 11.5063 31.4133C10.6242 32.9377 9.72477 34.4512 8.85276 35.9802C8.00911 37.4534 7.24231 38.9732 6.34102 40.4107C5.43972 41.8482 4.75803 43.3305 4.41947 44.9959C4.07423 46.6421 4.15358 48.3491 4.65006 49.9562C5.31528 52.1303 6.61461 53.9933 7.69525 55.9588C8.82347 58.0102 10.0459 60.0105 11.2245 62.0345C12.0974 63.5333 12.9685 65.033 13.8378 66.5337C14.6183 67.876 15.4098 69.211 16.1839 70.5598C17.3524 72.5902 18.5017 74.6307 19.6747 76.6584C20.8331 78.6605 22.0446 80.6314 23.1683 82.6527C24.1217 84.3665 25.1319 86.0236 26.6454 87.3056C27.473 88.0195 28.4149 88.589 29.4316 88.9901C30.8764 89.5483 32.3661 89.7304 33.8942 89.7304L52.19 89.7203Z" fill="url(#paint1_linear_444_83)"/>
<g filter="url(#filter1_d_444_83)">
<path d="M32.3542 83.3999V54.3123H37.6037C39.341 54.3123 41.0796 54.3123 42.8193 54.3123H48.0349H63.6763C65.4149 54.3123 67.1534 54.3187 68.8919 54.3123C70.6158 54.305 72.3416 54.3452 74.1323 54.2903C74.1323 53.7413 74.1396 53.3186 74.1323 52.8977C74.114 52.1044 74.0408 52.0495 73.2072 52.0961C72.9638 52.1098 72.7195 52.1053 72.4752 52.1053C59.3031 52.1053 46.1317 52.1031 32.9609 52.0989C32.4338 52.0989 32.0358 52.1904 31.6926 52.6232C31.3673 53.0277 30.9992 53.3959 30.5946 53.7212C30.1966 54.0442 30.0831 54.423 30.0831 54.9171C30.0929 64.1857 30.0965 73.4543 30.0941 82.7228C30.1063 82.9521 30.1326 83.1803 30.1728 83.4063L32.3542 83.3999ZM74.124 25.113C74.124 24.5192 74.1378 24.0351 74.124 23.5575C74.103 22.9518 74.049 22.9115 73.4149 22.8877C73.2932 22.8831 73.1715 22.8877 73.0489 22.8877H33.1658C32.9828 22.8877 32.7879 22.8484 32.6168 22.8987C32.3698 22.9719 32.0998 23.0625 31.915 23.229C31.4392 23.6554 31.0219 24.144 30.548 24.575C30.2039 24.8879 30.0694 25.2338 30.0703 25.6987C30.0831 30.1493 30.0767 34.6009 30.0822 39.0525C30.0968 39.2544 30.1274 39.4548 30.1737 39.6518H32.3469V25.2055H33.3992C46.5395 25.2055 59.6801 25.2055 72.821 25.2055C73.241 25.2018 73.6546 25.1487 74.124 25.1167V25.113ZM44.8433 39.6042V38.5904C44.8433 34.9913 44.8433 31.3922 44.8433 27.7931C44.8433 26.8049 44.8433 26.8049 43.8149 26.8232C43.7234 26.8232 43.6319 26.8232 43.5404 26.8232C42.6821 26.8022 42.6784 26.8022 42.6756 27.6339C42.6665 31.4453 42.6598 35.2579 42.6555 39.0717C42.6555 39.2712 42.7205 39.4707 42.769 39.7488H44.567C44.1717 40.1807 43.8615 40.4625 43.6245 40.7956C43.3875 41.1287 42.7461 41.1946 42.9108 41.8296C43.1515 41.8406 43.3683 41.8579 43.5751 41.8579C53.4244 41.8579 63.2731 41.8579 73.1212 41.8579C73.274 41.8579 73.4259 41.8579 73.5787 41.8579C73.9529 41.8497 74.1277 41.6585 74.1277 41.2824C74.1204 40.7718 74.1277 40.2612 74.1277 39.6637H64.3754C61.1134 39.6637 57.8504 39.6756 54.5847 39.6637C51.3684 39.6445 48.1484 39.7259 44.8443 39.6079L44.8433 39.6042ZM34.4121 20.796C34.4569 20.8619 34.5036 20.9277 34.5457 20.9927C47.5 20.9927 60.4539 20.9927 73.4076 20.9927C73.5896 20.9867 73.771 20.9702 73.9511 20.9433C73.9767 20.9433 73.9987 20.9067 74.0206 20.8866C74.0426 20.8664 74.0627 20.8435 74.1259 20.7777C74.1259 20.3375 74.1451 19.8517 74.1204 19.3676C74.0939 18.8369 73.9264 18.7152 73.3646 18.7436C73.2145 18.7518 73.0635 18.7637 72.9135 18.7637C61.4824 18.7637 50.0513 18.7652 38.6203 18.7683C37.8883 18.7683 37.0858 18.6017 36.4544 18.8598C35.8231 19.1178 35.3628 19.7968 34.8367 20.3009C34.6853 20.4593 34.5426 20.6258 34.4093 20.7996L34.4121 20.796ZM34.3279 49.9998C35.4461 50.2212 73.446 50.1828 74.0893 49.987V47.8944H37.5067C37.2628 47.8797 37.0181 47.8831 36.7747 47.9044C36.5761 47.9346 36.3419 47.9886 36.2046 48.1185C35.5925 48.7032 35.0078 49.319 34.3252 50.0035L34.3279 49.9998ZM74.1314 45.9975C74.1314 45.4485 74.1451 44.9727 74.1314 44.4932C74.1094 43.8792 73.9548 43.7466 73.3554 43.7612C72.5045 43.7822 71.6526 43.8152 70.8016 43.8143C60.9261 43.8094 51.0505 43.803 41.175 43.795C40.9417 43.795 40.6324 43.795 40.4878 43.9369C39.8556 44.538 39.269 45.1877 38.6724 45.8264C38.6523 45.8474 38.7017 45.9334 38.7209 45.9975H74.1314ZM38.5242 16.607L38.6459 16.79H39.9132L72.0021 16.7955C72.52 16.7955 73.0379 16.7955 73.5576 16.8037C73.8788 16.8083 74.1067 16.6793 74.114 16.3462C74.124 15.7844 74.0975 15.2207 74.0847 14.5985H41.6069C41.3635 14.5985 41.1183 14.5857 40.8749 14.6058C40.7303 14.6187 40.5501 14.6406 40.454 14.7312C39.8007 15.3406 39.1656 15.9765 38.5242 16.607ZM42.6747 12.6395H44.2413C53.9002 12.6431 63.5592 12.6456 73.2182 12.6468C73.5064 12.6468 73.7937 12.5946 74.1231 12.5626C74.1231 11.9733 74.1122 11.4884 74.1231 11.0071C74.1369 10.5825 73.9493 10.383 73.5284 10.3949C73.3765 10.3949 73.2237 10.4031 73.0709 10.4031C63.8078 10.4031 54.545 10.4031 45.2826 10.4031C45.0538 10.4031 44.7482 10.4242 44.6073 10.5642C43.9521 11.2166 43.3372 11.9193 42.6747 12.6395ZM36.4279 83.4548V69.7501V56.0454H34.3526C34.1531 57.094 34.1934 82.7704 34.3892 83.4548H36.4279ZM44.7839 83.432V56.006H42.6711C42.6711 65.1645 42.6665 74.2772 42.6711 83.432H44.7839ZM40.6489 83.4247V56.0234H38.4839V83.4247H40.6489ZM40.7029 39.6866C40.7029 35.4134 40.7029 31.2455 40.6965 27.0776C40.6965 26.9751 40.5903 26.8726 40.529 26.7619L38.4336 26.8827V39.6015C39.1611 39.8257 39.8748 39.7113 40.7029 39.6829V39.6866ZM34.3316 26.8479C34.1412 28.1619 34.1943 39.0012 34.3755 39.6537H36.4068C36.5761 38.2162 36.5157 27.4729 36.3492 26.8479H34.3316Z" fill="white"/>
</g>
<path d="M32.3545 83.4007H30.1639C30.1237 83.1747 30.0974 82.9464 30.0852 82.7172C30.0815 73.4492 30.0779 64.1807 30.0742 54.9115C30.0742 54.4174 30.1877 54.0386 30.5857 53.7156C30.9903 53.3902 31.3584 53.0221 31.6838 52.6176C32.0269 52.1866 32.4249 52.0932 32.952 52.0932C46.1228 52.1061 59.2942 52.1082 72.4663 52.0996C72.7097 52.0996 72.954 52.0996 73.1983 52.0905C74.0337 52.0438 74.1051 52.0987 74.1234 52.8921C74.1325 53.313 74.1234 53.7339 74.1234 54.2847C72.3327 54.3396 70.607 54.2994 68.8831 54.3067C67.1445 54.314 65.406 54.3067 63.6674 54.3067H48.0306H42.815C41.0764 54.3067 39.3379 54.3067 37.5994 54.3067H32.3499L32.3545 83.4007Z" fill="white"/>
<path d="M74.1226 25.1172C73.6532 25.1493 73.2396 25.2023 72.8269 25.2023C59.6866 25.2072 46.546 25.2072 33.405 25.2023H32.3527V39.6478H30.1796C30.1332 39.4507 30.1026 39.2503 30.0881 39.0484C30.0826 34.5969 30.0881 30.1453 30.0762 25.6946C30.0762 25.2298 30.2098 24.8839 30.5538 24.571C31.0278 24.1418 31.445 23.6559 31.9209 23.225C32.1039 23.0584 32.3784 22.9678 32.6227 22.8946C32.7901 22.8443 32.9887 22.8837 33.1717 22.8837H73.0511C73.1737 22.8837 73.2954 22.8791 73.4171 22.8837C74.0512 22.9074 74.1052 22.9477 74.1262 23.5535C74.1336 24.0393 74.1226 24.5225 74.1226 25.1172Z" fill="white"/>
<path d="M44.8449 39.6084C48.1463 39.7264 51.369 39.645 54.5889 39.6596C57.851 39.6752 61.114 39.6596 64.3797 39.6596H74.1265C74.1265 40.2571 74.121 40.7677 74.1265 41.2783C74.1265 41.6544 73.9545 41.8456 73.5775 41.8538C73.4247 41.8538 73.2728 41.8538 73.12 41.8538C63.2719 41.8538 53.4232 41.8538 43.5739 41.8538C43.3625 41.8538 43.1503 41.8364 42.9096 41.8255C42.7449 41.1904 43.3872 41.1236 43.6233 40.7915C43.8594 40.4593 44.1723 40.1766 44.5658 39.7447H42.7678C42.7193 39.4702 42.6534 39.2671 42.6543 39.0676C42.6543 35.2562 42.661 31.4436 42.6744 27.6298C42.6744 26.7981 42.6808 26.7981 43.5391 26.8191C43.6306 26.8191 43.7221 26.8191 43.8136 26.8191C44.8458 26.8008 44.843 26.8008 44.8421 27.789C44.8421 31.3881 44.8421 34.9872 44.8421 38.5863L44.8449 39.6084Z" fill="white"/>
<path d="M34.4102 20.7999C34.5425 20.6255 34.6842 20.4585 34.8347 20.2994C35.3609 19.7953 35.8211 19.1099 36.4525 18.8583C37.0839 18.6066 37.8891 18.7668 38.6183 18.7668C50.0488 18.7668 61.4799 18.7653 72.9115 18.7622C73.0616 18.7622 73.2126 18.7503 73.3626 18.7421C73.9245 18.7137 74.0947 18.8336 74.1185 19.3661C74.1432 19.8502 74.124 20.336 74.124 20.7762C74.0608 20.842 74.0407 20.8677 74.0187 20.885C73.9968 20.9024 73.9748 20.939 73.9492 20.9418C73.7691 20.9687 73.5876 20.9852 73.4057 20.9912C60.4514 20.9912 47.4974 20.9912 34.5438 20.9912C34.4989 20.9317 34.455 20.8622 34.4102 20.7999Z" fill="white"/>
<path d="M34.3262 50.0044C35.0088 49.3154 35.5935 48.7042 36.2075 48.1231C36.3447 47.9932 36.5789 47.9401 36.7775 47.909C37.0209 47.8877 37.2656 47.8843 37.5095 47.8989H74.0894V49.9916C73.4443 50.1828 35.4443 50.2258 34.3262 50.0044Z" fill="white"/>
<path d="M74.1247 46.0021H38.7134C38.6942 45.9381 38.6448 45.8521 38.6649 45.831C39.2615 45.1905 39.848 44.5427 40.4803 43.9415C40.6249 43.8033 40.9378 43.7997 41.1675 43.7997C51.043 43.7997 60.9185 43.8061 70.7941 43.8189C71.645 43.8189 72.4969 43.7869 73.3479 43.7658C73.9472 43.7512 74.1019 43.8839 74.1238 44.4978C74.1357 44.9773 74.1247 45.4568 74.1247 46.0021Z" fill="white"/>
<path d="M38.5234 16.6075C39.164 15.977 39.8045 15.3411 40.4541 14.7243C40.5456 14.6328 40.7286 14.6118 40.8751 14.599C41.1175 14.5789 41.3628 14.5917 41.6071 14.5917H74.0821C74.0949 15.2139 74.1215 15.7812 74.1114 16.3393C74.1059 16.6761 73.8762 16.8051 73.555 16.7969C73.0371 16.7905 72.5192 16.7886 71.9995 16.7886L39.9106 16.7831H38.6442L38.5234 16.6075Z" fill="white"/>
<path d="M42.6758 12.64C43.3383 11.9199 43.9568 11.2171 44.6129 10.5602C44.7538 10.4202 45.0594 10.3991 45.2882 10.3991C54.5506 10.3942 63.8134 10.3942 73.0765 10.3991C73.2284 10.3991 73.3812 10.3945 73.534 10.3909C73.9549 10.379 74.1425 10.5785 74.1287 11.003C74.1141 11.4871 74.1287 11.972 74.1287 12.5586C73.7993 12.5906 73.512 12.6428 73.2238 12.6428C63.5648 12.6428 53.9058 12.6403 44.2469 12.6354L42.6758 12.64Z" fill="white"/>
<path d="M44.7835 83.4321H42.668C42.668 74.2818 42.668 65.1646 42.668 56.0061H44.7808L44.7835 83.4321Z" fill="white"/>
<path d="M40.6454 83.4254H38.4805V56.0242H40.6454V83.4254Z" fill="white"/>
<path d="M40.7029 39.6834C39.8748 39.7099 39.161 39.8261 38.4336 39.6019V26.8831L40.529 26.7623C40.5903 26.873 40.6955 26.9755 40.6965 27.078C40.7047 31.2423 40.7029 35.4111 40.7029 39.6834Z" fill="white"/>
<path d="M34.3326 26.8485H36.3457C36.5122 27.4735 36.5726 38.2167 36.4033 39.6542H34.372C34.1991 39.0018 34.1496 28.1625 34.3326 26.8485Z" fill="white"/>
<defs>
<filter id="filter0_i_444_83" x="2.74219" y="2.05676" width="100.1" height="91.2585" filterUnits="userSpaceOnUse" color-interpolation-filters="sRGB">
<feFlood flood-opacity="0" result="BackgroundImageFix"/>
<feBlend mode="normal" in="SourceGraphic" in2="BackgroundImageFix" result="shape"/>
<feColorMatrix in="SourceAlpha" type="matrix" values="0 0 0 0 0 0 0 0 0 0 0 0 0 0 0 0 0 0 127 0" result="hardAlpha"/>
<feOffset dy="2.88694"/>
<feGaussianBlur stdDeviation="0.721734"/>
<feComposite in2="hardAlpha" operator="arithmetic" k2="-1" k3="1"/>
<feColorMatrix type="matrix" values="0 0 0 0 0 0 0 0 0 0 0 0 0 0 0 0 0 0 0.25 0"/>
<feBlend mode="normal" in2="shape" result="effect1_innerShadow_444_83"/>
</filter>
<filter id="filter1_d_444_83" x="27.1834" y="10.3944" width="49.8403" height="78.8343" filterUnits="userSpaceOnUse" color-interpolation-filters="sRGB">
<feFlood flood-opacity="0" result="BackgroundImageFix"/>
<feColorMatrix in="SourceAlpha" type="matrix" values="0 0 0 0 0 0 0 0 0 0 0 0 0 0 0 0 0 0 127 0" result="hardAlpha"/>
<feOffset dy="2.88694"/>
<feGaussianBlur stdDeviation="1.44347"/>
<feComposite in2="hardAlpha" operator="out"/>
<feColorMatrix type="matrix" values="0 0 0 0 0 0 0 0 0 0 0 0 0 0 0 0 0 0 0.5 0"/>
<feBlend mode="normal" in2="BackgroundImageFix" result="effect1_dropShadow_444_83"/>
<feBlend mode="normal" in="SourceGraphic" in2="effect1_dropShadow_444_83" result="shape"/>
</filter>
<linearGradient id="paint0_linear_444_83" x1="56.2198" y1="-17.1404" x2="56.2198" y2="98.0423" gradientUnits="userSpaceOnUse">
<stop offset="0.511905" stop-color="#7D6FE5"/>
<stop offset="0.791667" stop-color="#7565F4"/>
</linearGradient>
<linearGradient id="paint1_linear_444_83" x1="52.1065" y1="0" x2="52.1065" y2="94" gradientUnits="userSpaceOnUse">
<stop offset="0.366737" stop-color="#7065F0"/>
<stop offset="1" stop-color="#8A81F7"/>
</linearGradient>
</defs>
</svg>
