<svg width="216" height="63" viewBox="0 0 216 63" fill="none" xmlns="http://www.w3.org/2000/svg">
<path d="M11.3942 10.9383L17.775 2.27873L30.9923 1.36719L51.0462 1.82296L68.3654 30.9922L61.9846 44.2095L52.4135 59.2499L47.8558 61.073H34.1827H21.8769L15.9519 58.3384L2.7346 35.5499L1.82306 29.6249L4.55768 22.3326L11.3942 10.9383Z" fill="url(#paint0_linear_1_45)"/>
<path d="M34.59 0.00769152C38.7871 0.00769152 42.9842 -0.00569138 47.1813 0.0143816C48.8474 0.0145241 50.4844 0.45094 51.9294 1.2802C52.857 1.82005 53.6853 2.51481 54.3783 3.33433C55.3923 4.5156 56.0846 5.88361 56.8558 7.21026C57.3546 8.0667 57.8686 8.91342 58.3631 9.77291C59.2105 11.2443 60.0438 12.7242 60.8917 14.1951C61.4063 15.088 61.9422 15.9682 62.4587 16.8593C63.261 18.2419 64.0499 19.6318 64.8534 21.0132C65.6442 22.3769 66.4556 23.731 67.2488 25.0947C68.1466 26.6391 68.9605 28.2249 69.1983 30.0217C69.3207 30.926 69.3001 31.844 69.1375 32.7419C68.9033 34.0296 68.4349 35.2255 67.7993 36.3581C67.3273 37.2012 66.8127 38.0205 66.3236 38.852C65.9666 39.4603 65.6241 40.0777 65.2689 40.6884C64.6813 41.6993 64.0858 42.706 63.4994 43.7182C62.9842 44.6081 62.4781 45.5029 61.9653 46.3946C61.3619 47.4427 60.753 48.4871 60.1515 49.5363C59.34 50.953 58.5347 52.3733 57.7239 53.7906C57.0547 54.9615 56.4142 56.1507 55.702 57.2948C54.6192 59.0345 53.2524 60.4992 51.3832 61.4232C50.5456 61.8368 49.6618 62.0923 48.7409 62.2547C47.396 62.4901 46.0426 62.4883 44.6855 62.4877C37.589 62.4832 30.4939 62.4812 23.4002 62.4816C22.1672 62.4816 20.9367 62.3977 19.7341 62.0966C18.0949 61.694 16.5984 60.847 15.4093 59.6489C14.6082 58.8484 13.9568 57.9123 13.388 56.9262C12.6581 55.6647 11.931 54.4025 11.2068 53.1397C10.3503 51.6495 9.5036 50.1543 8.63924 48.6665C7.86917 47.3368 7.08268 46.0163 6.30956 44.6878C5.74995 43.7261 5.20433 42.7565 4.64594 41.7936C3.85518 40.428 3.05044 39.0698 2.26394 37.7012C1.81017 36.9104 1.33146 36.1324 0.949461 35.3088C0.169046 33.6269 -0.173416 31.8417 0.0850996 29.9974C0.291894 28.552 0.796902 27.1654 1.56807 25.9256C2.0851 25.0837 2.55956 24.2151 3.05591 23.3605C3.92757 21.8611 4.8053 20.3648 5.67148 18.8642C6.22745 17.9037 6.76637 16.9335 7.32355 15.9736C7.85944 15.0491 8.4148 14.1354 8.94947 13.2103C9.48414 12.2851 9.99996 11.3477 10.531 10.4219C11.0857 9.46147 11.6551 8.50892 12.2128 7.55089C12.7311 6.66098 13.2287 5.75952 13.7603 4.87813C15.0632 2.71694 16.8777 1.16767 19.3163 0.445645C20.1599 0.196861 21.0608 0.0314112 21.9373 0.019854C26.1569 -0.0160341 30.3741 0.00769152 34.59 0.00769152ZM34.694 59.6428V59.6191C38.9519 59.6191 43.2068 59.6525 47.4623 59.6051C49.6174 59.5807 51.3552 58.6014 52.6405 56.8794C53.1217 56.2359 53.5189 55.5266 53.9252 54.8301C54.8406 53.2626 55.7372 51.6841 56.6429 50.1105C57.146 49.2365 57.6478 48.3611 58.1594 47.4919C58.6709 46.6227 59.2068 45.7675 59.7111 44.8946C60.2768 43.9159 60.8114 42.9201 61.3741 41.9396C62.2877 40.3463 63.2078 38.7571 64.1344 37.172C64.3674 36.7717 64.6326 36.3903 64.8534 35.984C65.2683 35.22 65.7524 34.4767 66.045 33.6665C66.75 31.7151 66.6661 29.7796 65.6563 27.9256C65.3078 27.2869 64.9726 26.6403 64.6168 26.0059C64.1707 25.2123 63.7168 24.4234 63.2549 23.6391C62.4574 22.2784 61.6442 20.9262 60.8528 19.5637C60.0304 18.1458 59.2312 16.7151 58.413 15.2954C57.6352 13.9455 56.851 12.5993 56.0602 11.2571C55.0261 9.4931 54.0213 7.71573 52.9483 5.9785C52.0809 4.574 50.8437 3.60258 49.2415 3.11414C48.2415 2.81 47.2202 2.74553 46.1873 2.74553C38.4448 2.74553 30.7017 2.74735 22.958 2.751C22.1897 2.75446 21.423 2.82057 20.6654 2.94869C19.5243 3.13969 18.5365 3.6701 17.6654 4.44504C16.8674 5.15429 16.2664 5.9931 15.7451 6.9195C14.9081 8.41463 14.0194 9.88179 13.1593 11.3641C12.8455 11.9049 12.5608 12.4627 12.2433 13.001C11.7116 13.9025 11.1593 14.7918 10.6246 15.6914C10.2554 16.3143 9.90202 16.9469 9.54071 17.577C9.21893 18.1367 8.89351 18.6938 8.57294 19.2547C8.26273 19.796 7.96468 20.3429 7.64898 20.8824C7.06261 21.8958 6.46467 22.9019 5.88499 23.9183C5.32416 24.8976 4.81442 25.908 4.21528 26.8636C3.61613 27.8192 3.16296 28.8046 2.9379 29.9116C2.7084 31.006 2.76115 32.1407 3.09119 33.2091C3.5334 34.6543 4.39715 35.8928 5.11552 37.1993C5.86552 38.5631 6.67817 39.8928 7.46163 41.2383C8.04192 42.2346 8.621 43.2316 9.19886 44.2291C9.71772 45.1215 10.2439 46.009 10.7585 46.9055C11.5352 48.2553 12.2992 49.6118 13.079 50.9597C13.8491 52.2906 14.6545 53.6008 15.4014 54.9445C16.0352 56.0838 16.7068 57.1854 17.7129 58.0375C18.263 58.5121 18.8892 58.8907 19.565 59.1574C20.5255 59.5284 21.5158 59.6495 22.5316 59.6495L34.694 59.6428Z" fill="url(#paint1_linear_1_45)"/>
<path d="M21.5078 55.4413V36.1049H24.9975C26.1524 36.1049 27.3081 36.1049 28.4646 36.1049H31.9318H42.3296C43.4853 36.1049 44.641 36.1092 45.7968 36.1049C46.9428 36.1001 48.09 36.1268 49.2803 36.0903C49.2803 35.7254 49.2852 35.4443 49.2803 35.1645C49.2682 34.6372 49.2195 34.6007 48.6654 34.6317C48.5036 34.6408 48.3412 34.6378 48.1788 34.6378C39.4225 34.6378 30.6666 34.6364 21.9111 34.6335C21.5607 34.6335 21.2961 34.6943 21.068 34.9821C20.8518 35.251 20.607 35.4957 20.3381 35.712C20.0735 35.9267 19.9981 36.1785 19.9981 36.507C20.0046 42.6684 20.007 48.8298 20.0054 54.9912C20.0135 55.1436 20.031 55.2953 20.0577 55.4456L21.5078 55.4413ZM49.2749 16.6943C49.2749 16.2995 49.284 15.9778 49.2749 15.6603C49.2609 15.2576 49.225 15.2308 48.8035 15.215C48.7226 15.212 48.6417 15.215 48.5601 15.215H22.0474C21.9257 15.215 21.7961 15.1888 21.6824 15.2223C21.5182 15.271 21.3387 15.3312 21.2158 15.4419C20.8995 15.7253 20.6222 16.0502 20.3071 16.3367C20.0784 16.5447 19.989 16.7746 19.9896 17.0836C19.9981 20.0423 19.9938 23.0015 19.9975 25.9608C20.0072 26.095 20.0275 26.2282 20.0583 26.3592H21.503V16.7558H22.2025C30.9377 16.7558 39.6731 16.7558 48.4087 16.7558C48.6879 16.7533 48.9628 16.718 49.2749 16.6968V16.6943ZM29.8101 26.3275V25.6536C29.8101 23.261 29.8101 20.8685 29.8101 18.476C29.8101 17.819 29.8101 17.819 29.1264 17.8312C29.0656 17.8312 29.0048 17.8312 28.944 17.8312C28.3734 17.8172 28.371 17.8172 28.3691 18.3701C28.363 20.9038 28.3586 23.4382 28.3558 25.9735C28.3558 26.1061 28.3989 26.2387 28.4312 26.4237H29.6264C29.3637 26.7108 29.1575 26.8981 28.9999 27.1195C28.8424 27.3409 28.416 27.3847 28.5255 27.8069C28.6854 27.8142 28.8296 27.8257 28.9671 27.8257C35.5145 27.8257 42.0616 27.8257 48.6082 27.8257C48.7098 27.8257 48.8108 27.8257 48.9123 27.8257C49.1611 27.8202 49.2773 27.6931 49.2773 27.4431C49.2724 27.1037 49.2773 26.7643 49.2773 26.3671H42.7943C40.6258 26.3671 38.4567 26.375 36.2858 26.3671C34.1477 26.3543 32.0072 26.4084 29.8107 26.33L29.8101 26.3275ZM22.8758 13.8245C22.9056 13.8683 22.9366 13.9121 22.9646 13.9553C31.5762 13.9553 40.1875 13.9553 48.7986 13.9553C48.9196 13.9513 49.0402 13.9403 49.1599 13.9224C49.1769 13.9224 49.1915 13.8981 49.2061 13.8847C49.2207 13.8713 49.2341 13.8561 49.2761 13.8123C49.2761 13.5197 49.2889 13.1968 49.2724 12.875C49.2548 12.5222 49.1435 12.4413 48.77 12.4601C48.6703 12.4656 48.5699 12.4735 48.4701 12.4735C40.8712 12.4735 33.2722 12.4745 25.6733 12.4766C25.1866 12.4766 24.6532 12.3658 24.2335 12.5374C23.8138 12.7089 23.5078 13.1603 23.1581 13.4954C23.0574 13.6007 22.9626 13.7113 22.874 13.8269L22.8758 13.8245ZM22.8199 33.2381C23.5632 33.3853 48.8241 33.3598 49.2518 33.2296V31.8385H24.933C24.7708 31.8288 24.6082 31.831 24.4464 31.8452C24.3144 31.8653 24.1587 31.9011 24.0674 31.9875C23.6605 32.3762 23.2718 32.7856 22.818 33.2406L22.8199 33.2381ZM49.2797 30.5775C49.2797 30.2126 49.2889 29.8963 49.2797 29.5775C49.2651 29.1694 49.1623 29.0812 48.7639 29.0909C48.1982 29.1049 47.6319 29.1268 47.0662 29.1262C40.5014 29.123 33.9365 29.1187 27.3716 29.1134C27.2165 29.1134 27.0109 29.1134 26.9148 29.2077C26.4944 29.6074 26.1045 30.0392 25.7079 30.4638C25.6946 30.4778 25.7274 30.535 25.7402 30.5775H49.2797ZM25.6094 11.0398L25.6903 11.1615H26.5328L47.8643 11.1651C48.2086 11.1651 48.5529 11.1651 48.8983 11.1706C49.1119 11.1736 49.2633 11.0879 49.2682 10.8665C49.2749 10.493 49.2572 10.1183 49.2487 9.70466H27.6587C27.4969 9.70466 27.3339 9.69614 27.1721 9.70952C27.0759 9.71804 26.9561 9.73263 26.8922 9.79285C26.4579 10.198 26.0358 10.6207 25.6094 11.0398ZM28.3685 8.40234H29.4099C35.8308 8.40477 42.2518 8.40639 48.6727 8.4072C48.8643 8.4072 49.0553 8.37254 49.2743 8.35125C49.2743 7.95952 49.267 7.63714 49.2743 7.31718C49.2834 7.03495 49.1587 6.90234 48.8789 6.91025C48.7779 6.91025 48.6763 6.91572 48.5748 6.91572C42.417 6.91572 36.2595 6.91572 30.1021 6.91572C29.95 6.91572 29.7469 6.92971 29.6532 7.02277C29.2177 7.45647 28.8089 7.92363 28.3685 8.40234ZM24.2158 55.4778V37.257H22.8363C22.7037 37.9541 22.7304 55.0228 22.8606 55.4778H24.2158ZM29.7706 55.4626V37.2308H28.3661C28.3661 43.319 28.3631 49.3768 28.3661 55.4626H29.7706ZM27.0218 55.4577V37.2424H25.5826V55.4577H27.0218ZM27.0577 26.3823C27.0577 23.5417 27.0577 20.771 27.0534 18.0003C27.0534 17.9322 26.9829 17.864 26.9421 17.7904L25.5492 17.8707V26.3257C26.0328 26.4747 26.5072 26.3987 27.0577 26.3799V26.3823ZM22.8223 17.8476C22.6958 18.7211 22.731 25.9267 22.8515 26.3604H24.2019C24.3144 25.4048 24.2742 18.2631 24.1635 17.8476H22.8223Z" fill="white"/>
<path d="M21.508 55.4415H20.0518C20.0251 55.2913 20.0076 55.1395 19.9995 54.9871C19.9971 48.8261 19.9946 42.6647 19.9922 36.5029C19.9922 36.1744 20.0676 35.9226 20.3322 35.7079C20.6011 35.4916 20.8459 35.2469 21.0621 34.978C21.2902 34.6915 21.5548 34.6294 21.9052 34.6294C30.6607 34.638 39.4166 34.6394 48.1729 34.6337C48.3347 34.6337 48.4971 34.6337 48.6595 34.6276C49.2148 34.5966 49.2623 34.6331 49.2745 35.1605C49.2805 35.4403 49.2745 35.7201 49.2745 36.0862C48.0841 36.1227 46.9369 36.096 45.7909 36.1008C44.6352 36.1057 43.4794 36.1008 42.3237 36.1008H31.9289H28.4618C27.3061 36.1008 26.1503 36.1008 24.9946 36.1008H21.505L21.508 55.4415Z" fill="white"/>
<path d="M49.2749 16.6969C48.9628 16.7182 48.6879 16.7535 48.4136 16.7535C39.6784 16.7567 30.943 16.7567 22.2073 16.7535H21.5078V26.3563H20.0632C20.0324 26.2253 20.012 26.0921 20.0024 25.9579C19.9987 22.9986 20.0024 20.0394 19.9944 17.0807C19.9944 16.7717 20.0833 16.5418 20.312 16.3338C20.627 16.0485 20.9044 15.7255 21.2207 15.439C21.3424 15.3283 21.5249 15.2681 21.6873 15.2194C21.7986 15.186 21.9306 15.2121 22.0522 15.2121H48.5626C48.6441 15.2121 48.725 15.2091 48.8059 15.2121C49.2274 15.2279 49.2633 15.2547 49.2773 15.6574C49.2822 15.9804 49.2749 16.3015 49.2749 16.6969Z" fill="white"/>
<path d="M29.8107 26.3301C32.0054 26.4086 34.1477 26.3545 36.2882 26.3642C38.4567 26.3745 40.6258 26.3642 42.7967 26.3642H49.2761C49.2761 26.7614 49.2724 27.1008 49.2761 27.4402C49.2761 27.6902 49.1617 27.8173 48.9111 27.8228C48.8095 27.8228 48.7085 27.8228 48.607 27.8228C42.0603 27.8228 35.5133 27.8228 28.9658 27.8228C28.8253 27.8228 28.6842 27.8113 28.5242 27.804C28.4147 27.3818 28.8417 27.3374 28.9987 27.1166C29.1556 26.8958 29.3636 26.7079 29.6252 26.4208H28.4299C28.3977 26.2383 28.3539 26.1032 28.3545 25.9706C28.3545 23.437 28.359 20.9025 28.3679 18.3672C28.3679 17.8143 28.3721 17.8143 28.9427 17.8283C29.0035 17.8283 29.0644 17.8283 29.1252 17.8283C29.8113 17.8161 29.8095 17.8161 29.8089 18.4731C29.8089 20.8656 29.8089 23.2581 29.8089 25.6507L29.8107 26.3301Z" fill="white"/>
<path d="M22.8744 13.8269C22.9624 13.7109 23.0566 13.5998 23.1566 13.4941C23.5064 13.159 23.8124 12.7034 24.2321 12.5361C24.6518 12.3688 25.187 12.4753 25.6718 12.4753C33.2704 12.4753 40.8693 12.4743 48.4687 12.4722C48.5685 12.4722 48.6688 12.4643 48.7686 12.4589C49.1421 12.44 49.2552 12.5197 49.271 12.8737C49.2874 13.1955 49.2747 13.5185 49.2747 13.811C49.2327 13.8548 49.2193 13.8719 49.2047 13.8834C49.1901 13.895 49.1755 13.9193 49.1585 13.9211C49.0388 13.939 48.9181 13.95 48.7972 13.954C40.1856 13.954 31.5743 13.954 22.9632 13.954C22.9334 13.9145 22.9042 13.8682 22.8744 13.8269Z" fill="white"/>
<path d="M22.8183 33.2408C23.2721 32.7827 23.6608 32.3764 24.0689 31.9902C24.1601 31.9038 24.3159 31.8685 24.4479 31.8478C24.6097 31.8336 24.7723 31.8314 24.9345 31.8411H49.2514V33.2323C48.8226 33.3594 23.5616 33.388 22.8183 33.2408Z" fill="white"/>
<path d="M49.2751 30.5803H25.735C25.7222 30.5378 25.6893 30.4806 25.7027 30.4666C26.0993 30.0408 26.4892 29.6101 26.9095 29.2105C27.0057 29.1187 27.2137 29.1162 27.3664 29.1162C33.9312 29.1162 40.4961 29.1205 47.061 29.129C47.6267 29.129 48.193 29.1077 48.7587 29.0937C49.1571 29.084 49.2599 29.1722 49.2745 29.5803C49.2824 29.8991 49.2751 30.2178 49.2751 30.5803Z" fill="white"/>
<path d="M25.6097 11.0397C26.0355 10.6206 26.4613 10.1979 26.8931 9.78789C26.954 9.72707 27.0756 9.71308 27.1729 9.70456C27.3341 9.69118 27.4972 9.69969 27.6596 9.69969H49.2478C49.2563 10.1133 49.2739 10.4904 49.2672 10.8615C49.2636 11.0853 49.1109 11.1711 48.8974 11.1656C48.5531 11.1614 48.2088 11.1602 47.8633 11.1602L26.5318 11.1565H25.69L25.6097 11.0397Z" fill="white"/>
<path d="M28.3688 8.40245C28.8092 7.92374 29.2204 7.45659 29.6565 7.01985C29.7502 6.92678 29.9533 6.91279 30.1054 6.91279C36.2627 6.90954 42.4203 6.90954 48.578 6.91279C48.679 6.91279 48.7806 6.90975 48.8822 6.90732C49.162 6.89941 49.2867 7.03201 49.2775 7.31425C49.2678 7.63602 49.2775 7.95841 49.2775 8.34831C49.0586 8.3696 48.8676 8.40428 48.676 8.40428C42.255 8.40428 35.8341 8.40265 29.4132 8.3994L28.3688 8.40245Z" fill="white"/>
<path d="M29.7708 55.4625H28.3645C28.3645 49.3798 28.3645 43.3189 28.3645 37.2307H29.769L29.7708 55.4625Z" fill="white"/>
<path d="M27.0197 55.4578H25.5805V37.2424H27.0197V55.4578Z" fill="white"/>
<path d="M27.0577 26.38C26.5072 26.3976 26.0327 26.4748 25.5491 26.3258V17.8708L26.9421 17.7905C26.9828 17.8641 27.0528 17.9323 27.0534 18.0004C27.0589 20.7686 27.0577 23.5399 27.0577 26.38Z" fill="white"/>
<path d="M22.8226 17.8477H24.1608C24.2715 18.2631 24.3116 25.4048 24.1991 26.3604H22.8487C22.7338 25.9267 22.7009 18.7211 22.8226 17.8477Z" fill="white"/>
<path d="M107.133 22.2013C108.564 23.9133 110.03 25.5213 111.531 27.232C111.301 27.2781 111.221 27.3084 111.142 27.3084C109.606 27.3084 108.07 27.2926 106.533 27.3084C106.179 27.3084 105.973 27.1549 105.759 26.9093C104.726 25.7169 103.67 24.5441 102.645 23.3451C102.404 23.0639 102.151 22.9605 101.794 22.9645C100.521 22.9796 99.2484 22.9724 97.975 22.973H97.4752V18.5797H98.2416C100.129 18.5797 102.016 18.5751 103.904 18.5797C104.635 18.5797 105.227 18.3223 105.658 17.7277C106.125 17.0837 106.133 16.3706 105.848 15.6779C105.562 14.9852 105.028 14.5519 104.248 14.4966C103.746 14.4617 103.244 14.4202 102.742 14.4182C100.548 14.4077 98.3536 14.4116 96.1576 14.4097H95.4682C95.4451 14.6342 95.4142 14.8001 95.4142 14.9667C95.4102 18.8736 95.408 22.7794 95.4076 26.6842C95.4076 27.2682 95.3865 27.2998 94.8459 27.3018C93.7265 27.3057 92.6071 27.3038 91.4877 27.2959C91.0367 27.2959 90.9827 27.23 90.9886 26.8139C90.9985 26.135 91.0104 25.4554 91.0104 24.7726C91.0104 20.2977 91.0104 15.8225 91.0104 11.3471V10.1204C91.1777 10.0923 91.3466 10.0736 91.5161 10.0644C95.5986 10.0611 99.681 10.0513 103.764 10.0697C104.907 10.0743 106.038 10.2159 107.047 10.8368C108.808 11.9213 110.018 13.3785 110.334 15.4981C110.483 16.4963 110.438 17.4597 110.149 18.4151C109.734 19.7834 108.902 20.8593 107.783 21.7266C107.596 21.8747 107.398 22.0097 107.133 22.2013Z" fill="black"/>
<path d="M211.275 21.7379V10.1014H215.638C215.651 10.3247 215.674 10.5367 215.674 10.7494C215.674 15.6194 215.672 20.4898 215.669 25.3607C215.661 25.7088 215.611 26.0547 215.52 26.3906C215.407 26.8351 215.069 27.0853 214.637 27.1808C213.596 27.4066 212.537 27.3783 211.498 27.2334C210.824 27.1406 210.25 26.7251 209.725 26.278C208.466 25.2053 207.426 23.9325 206.393 22.6564C204.988 20.9194 203.59 19.1786 202.197 17.4341C201.722 16.8415 201.243 16.2541 200.642 15.7004V27.2677H196.221C196.207 27.0109 196.186 26.7982 196.186 26.5848C196.186 21.8439 196.187 17.1051 196.189 12.3685C196.193 11.9746 196.236 11.5821 196.316 11.1965C196.434 10.6039 196.79 10.1726 197.413 10.139C198.417 10.0843 199.437 10.0073 200.43 10.1218C201.367 10.2312 202.076 10.912 202.752 11.5395C204.149 12.8466 205.262 14.4019 206.466 15.8762C207.989 17.7416 209.489 19.6255 211 21.5002C211.087 21.5848 211.179 21.6641 211.275 21.7379Z" fill="black"/>
<path d="M184.768 10.0269C185.774 10.0697 186.788 10.0512 187.785 10.1757C188.501 10.2641 189.199 10.4596 189.857 10.7558C191.762 11.6276 193.243 12.9669 194.19 14.8791C195.261 17.0402 195.364 19.2553 194.601 21.5026C193.912 23.53 192.549 25.0182 190.725 26.1343C189.325 26.9903 187.796 27.2431 186.21 27.2991C185.269 27.3327 184.324 27.3241 183.379 27.3024C181.667 27.2629 180.021 26.9119 178.583 25.946C177.938 25.5127 177.374 24.9444 176.818 24.3926C176.211 23.7867 175.724 23.0718 175.381 22.2855C174.999 21.4229 174.667 20.5485 174.671 19.5858C174.671 19.0643 174.665 18.5428 174.671 18.0213C174.68 16.0314 175.521 14.3852 176.807 12.9366C177.738 11.8771 178.913 11.0596 180.231 10.5543C181.259 10.1592 182.357 10.0789 183.457 10.065C183.896 10.0591 184.335 10.065 184.774 10.065L184.768 10.0269ZM184.696 22.9829C184.696 22.9638 184.696 22.9447 184.7 22.9256C185.182 22.9256 185.666 22.9466 186.149 22.9203C186.912 22.8788 187.69 22.8479 188.376 22.4594C190.361 21.34 191.134 19.3758 190.44 17.2068C189.979 15.7641 188.613 14.5782 186.913 14.4998C185.82 14.4498 184.725 14.4162 183.631 14.434C182.784 14.4478 181.919 14.4662 181.159 14.9397C179.73 15.8306 179.031 17.0757 179.001 18.8049C178.968 20.773 180.708 22.5581 182.283 22.7807C183.079 22.8946 183.89 22.919 184.696 22.9829Z" fill="black"/>
<path d="M127.744 27.2702C127.531 26.7797 127.316 26.3029 127.116 25.8216C126.852 25.1862 126.835 25.1684 126.158 25.1677C124.644 25.1677 123.13 25.1677 121.615 25.1677H120.85C121.519 23.6302 122.142 22.2007 122.777 20.7422H124.881C124.222 19.2573 123.597 17.8574 122.921 16.3383C121.292 20.0547 119.716 23.6473 118.128 27.2689H112.742C112.732 27.1747 112.7 27.1003 112.722 27.0496C113.798 24.6282 114.876 22.2081 115.957 19.7894C116.962 17.5302 117.946 15.2611 118.975 13.0124C119.387 12.1116 119.957 11.2958 120.753 10.6815C121.026 10.4714 121.34 10.2304 121.662 10.1823C123.881 9.84981 125.041 10.0032 126.279 12.0102C126.896 13.0118 127.38 14.1009 127.872 15.1742C128.62 16.8052 129.325 18.456 130.045 20.0995C130.813 21.8423 131.579 23.5861 132.343 25.331C132.613 25.9456 132.884 26.5602 133.156 27.1747C132.672 27.3354 129.586 27.3848 127.744 27.2702Z" fill="black"/>
<path d="M151.586 27.3022C151.308 27.3022 151.092 27.3022 150.874 27.3022C148.417 27.3022 145.959 27.3207 143.499 27.3022C142.271 27.2924 141.041 27.1765 139.889 26.73C139.235 26.473 138.616 26.1354 138.045 25.7252C136.685 24.7527 135.63 23.5029 134.979 21.9482C134.492 20.7808 134.321 19.5541 134.369 18.2885C134.427 16.7892 134.821 15.3959 135.645 14.1402C136.421 12.9549 137.389 11.9639 138.631 11.2429C139.242 10.8893 139.882 10.6437 140.545 10.402C141.354 10.1064 142.188 10.0952 143.006 10.0807C145.748 10.032 148.491 10.059 151.237 10.059C151.366 10.0681 151.495 10.0843 151.623 10.1077C151.71 11.5135 151.653 12.9036 151.654 14.3719C151.383 14.3904 151.153 14.418 150.924 14.4187C148.642 14.4226 146.36 14.4187 144.076 14.4259C143.441 14.4259 142.799 14.422 142.173 14.5115C141.105 14.6636 140.247 15.2358 139.605 16.0846C137.869 18.3701 138.781 21.7329 141.635 22.6798C142.144 22.849 142.709 22.909 143.249 22.9142C145.728 22.9379 148.207 22.9248 150.689 22.9248C150.821 22.9248 150.953 22.9248 151.084 22.9248C151.622 22.9399 151.653 22.9583 151.658 23.4746C151.667 24.615 151.664 25.7562 151.658 26.8986C151.658 27.0026 151.623 27.1087 151.586 27.3022Z" fill="black"/>
<path d="M158.125 27.2873V14.4228H156.499C155.424 14.4228 154.35 14.4189 153.272 14.4228C152.988 14.4228 152.731 14.4123 152.73 14.0317V10.1783C153.234 10.0401 166.864 9.99463 167.872 10.1204C167.901 10.2809 167.92 10.4429 167.93 10.6057C167.938 11.6803 167.942 12.7558 167.94 13.8322C167.94 14.4248 167.925 14.4294 167.296 14.4248C165.914 14.4222 164.531 14.4209 163.147 14.4209C162.978 14.4209 162.807 14.4393 162.555 14.4544V27.3064C161.042 27.2978 159.614 27.3215 158.125 27.2873Z" fill="black"/>
<path d="M74.7474 10.1467C75.5284 10.0071 89.3654 10.0374 89.8586 10.177V14.4103H79.1137V27.2082C78.9366 27.2537 78.8345 27.3017 78.7331 27.3024C77.5918 27.3063 76.4515 27.3063 75.3124 27.3024C74.7678 27.3024 74.7461 27.2681 74.7461 26.7585C74.7461 21.4302 74.7461 16.1021 74.7461 10.7742L74.7474 10.1467Z" fill="black"/>
<path d="M169.07 10.0596H173.271C173.303 10.0847 173.333 10.112 173.362 10.1412C173.376 10.1572 173.387 10.1767 173.393 10.1978C173.412 10.282 173.424 10.3677 173.429 10.454C173.429 16.0018 173.425 21.5492 173.418 27.0961C173.418 27.1343 173.379 27.1725 173.334 27.2587H169.07V10.0596Z" fill="black"/>
<path d="M89.8521 16.5588C89.9535 17.9356 89.8619 19.3243 89.9001 20.7032C89.3997 20.8757 83.056 20.9343 81.2894 20.7986C81.1465 20.3548 81.1063 17.4464 81.2308 16.5772C81.7062 16.4462 89.104 16.4198 89.8521 16.5588Z" fill="black"/>
<path d="M108.284 34.6919V39.0378H107.15C103.857 39.0329 100.567 39.0294 97.278 39.0272C96.9276 39.0226 96.5773 39.0475 96.2311 39.1016C96.001 39.1342 95.7913 39.2511 95.6425 39.4296C95.4937 39.6081 95.4164 39.8354 95.4258 40.0676C95.4468 40.5509 95.8413 41.0033 96.314 41.0658C96.4892 41.0807 96.6652 41.084 96.8408 41.0757C98.7714 41.0757 100.702 41.0902 102.635 41.0718C104.124 41.0579 105.46 41.4866 106.548 42.4934C107.482 43.3573 108.087 44.4339 108.267 45.7331C108.499 47.4108 108.014 48.866 106.911 50.1013C105.923 51.2043 104.667 51.8265 103.164 51.8792C102.703 51.8963 102.242 51.9022 101.781 51.9022C98.381 51.9022 94.9806 51.9009 91.5803 51.8983C91.4295 51.8983 91.2787 51.8825 91.1392 51.8752C90.991 51.4979 90.9416 48.4255 91.0687 47.5616C91.2853 47.5504 91.5178 47.528 91.7502 47.528C95.2822 47.528 98.8142 47.5263 102.346 47.5228C102.629 47.5271 102.912 47.4932 103.186 47.422C103.669 47.2844 103.9 46.9334 103.894 46.4442C103.888 45.9662 103.69 45.6837 103.192 45.5388C102.939 45.4723 102.678 45.4409 102.416 45.4453C100.289 45.4321 98.161 45.4302 96.0335 45.4216C95.005 45.4177 94.0884 45.0232 93.2983 44.4293C91.1444 42.8108 90.5538 40.4871 91.3887 38.1837C92.0827 36.2656 93.5156 35.0567 95.5943 34.7597C96.1381 34.6917 96.686 34.6622 97.2339 34.6715C100.79 34.6623 104.343 34.6598 107.895 34.6642C107.999 34.6636 108.106 34.6787 108.284 34.6919Z" fill="black"/>
<path d="M140.805 51.8734C140.574 51.3374 140.344 50.8198 140.129 50.2931C139.97 49.898 139.729 49.7472 139.278 49.7584C137.808 49.7953 136.338 49.7755 134.866 49.7768C134.603 49.7768 134.343 49.7768 134.002 49.7768C134.057 49.1901 134.392 48.7661 134.559 48.2894C134.733 47.7948 134.974 47.324 135.187 46.8407C135.399 46.3574 135.613 45.8833 135.856 45.3355H137.947L136.008 40.9692C135.079 42.8616 134.368 44.6836 133.557 46.4575C132.738 48.2459 131.984 50.0633 131.2 51.8701H125.798C125.851 51.6785 125.873 51.5317 125.929 51.4019C126.959 49.0815 127.99 46.7622 129.024 44.4439C129.761 42.7833 130.484 41.1154 131.234 39.46C131.649 38.5447 132.075 37.6308 132.551 36.7471C132.901 36.0844 133.415 35.5219 134.043 35.1128C134.419 34.8698 134.811 34.6933 135.266 34.6861C135.748 34.6782 136.233 34.6426 136.714 34.6736C137.577 34.7302 138.26 35.1806 138.769 35.8384C139.222 36.4231 139.66 37.0441 139.968 37.7118C141.061 40.077 142.096 42.4685 143.153 44.8502C143.846 46.4121 144.539 47.9737 145.233 49.5352C145.508 50.1554 145.783 50.7764 146.049 51.4C146.101 51.5539 146.144 51.7112 146.175 51.8708L140.805 51.8734Z" fill="black"/>
<path d="M163.757 34.7009H178.677C178.83 35.123 178.883 37.348 178.771 38.9928H168.195C168.148 39.1667 168.088 39.2865 168.088 39.4063C168.082 42.0784 168.084 44.7505 168.084 47.5154C168.801 47.5424 169.494 47.5259 170.185 47.5285C170.909 47.5285 171.634 47.5285 172.358 47.5285H178.766V51.7842C178.751 51.8007 178.736 51.8171 178.721 51.8323C178.705 51.8474 178.689 51.8691 178.671 51.8718C178.564 51.8906 178.456 51.9023 178.347 51.9067C173.501 51.9067 168.655 51.9067 163.861 51.9067L163.767 51.8059C163.752 51.7895 163.729 51.7737 163.726 51.7552C163.705 51.6259 163.693 51.4956 163.688 51.3648C163.688 45.8775 163.69 40.3927 163.694 34.9103C163.706 34.8381 163.727 34.7677 163.757 34.7009Z" fill="black"/>
<path d="M89.8695 34.707C89.9103 36.1596 89.8833 37.5707 89.8905 39.0357H79.1845V47.4865C79.874 47.5741 80.5673 47.5175 81.2613 47.5273C81.9857 47.5372 82.71 47.5273 83.4343 47.5273H89.8425V51.8732H74.8624C74.8571 51.8673 74.8426 51.8508 74.8275 51.835C74.8123 51.8192 74.7853 51.8028 74.7853 51.787C74.7708 46.2809 74.7579 40.7748 74.7465 35.2687C74.7465 35.0955 74.7643 34.923 74.7761 34.7043L89.8695 34.707Z" fill="black"/>
<path d="M114.833 39.0214H109.46C109.394 37.5635 109.433 36.1722 109.435 34.794C109.93 34.6399 123.262 34.5767 124.555 34.7144C124.588 34.852 124.61 34.992 124.621 35.1331C124.633 36.2947 124.639 37.4569 124.645 38.619C124.645 38.9687 124.579 39.0247 124.145 39.0253C122.74 39.0253 121.335 39.0238 119.931 39.0207H119.267V51.7693C118.669 51.9445 115.444 51.9524 114.83 51.7864L114.833 39.0214Z" fill="black"/>
<path d="M152.726 39.0081H147.448V34.7043H162.388C162.526 35.1027 162.562 38.5116 162.414 39.0081H157.23C157.214 39.2774 157.187 39.5072 157.187 39.7364C157.184 43.5331 157.184 47.3302 157.187 51.1278V51.1937C157.187 51.8956 157.187 51.9002 156.515 51.9022C155.483 51.9055 154.452 51.9022 153.42 51.9022C153.333 51.9022 153.244 51.9022 153.157 51.9068C152.881 51.9134 152.757 51.7692 152.757 51.5032C152.757 51.3939 152.763 51.2839 152.763 51.1739C152.763 47.3987 152.763 43.6235 152.763 39.8483C152.764 39.5908 152.741 39.3334 152.726 39.0081Z" fill="black"/>
<path d="M89.7663 41.1111C89.9211 41.5378 89.9527 44.676 89.8039 45.3674C89.2112 45.4932 81.7087 45.4701 81.2253 45.3338V41.1111H89.7663Z" fill="black"/>
<path d="M170.176 45.3961V41.1213H178.751C178.773 41.2355 178.788 41.351 178.796 41.467C178.796 42.7576 178.796 44.0489 178.796 45.3961H170.176Z" fill="black"/>
<defs>
<linearGradient id="paint0_linear_1_45" x1="37.373" y1="-11.3944" x2="37.373" y2="65.1749" gradientUnits="userSpaceOnUse">
<stop offset="0.511905" stop-color="#7D6FE5"/>
<stop offset="0.791667" stop-color="#7565F4"/>
</linearGradient>
<linearGradient id="paint1_linear_1_45" x1="34.6385" y1="0" x2="34.6385" y2="62.4878" gradientUnits="userSpaceOnUse">
<stop offset="0.366737" stop-color="#7065F0"/>
<stop offset="1" stop-color="#8A81F7"/>
</linearGradient>
</defs>
</svg>
