<svg width="26" height="21" viewBox="0 0 26 21" fill="none" xmlns="http://www.w3.org/2000/svg">
<path d="M21.9742 1.75875C20.2949 0.937125 18.4994 0.340005 16.6223 0C16.3918 0.435875 16.1224 1.02214 15.9367 1.4885C13.9413 1.17468 11.9642 1.17468 10.0054 1.4885C9.81975 1.02214 9.5443 0.435875 9.3117 0C7.43253 0.340005 5.63497 0.939319 3.95575 1.7631C0.568751 7.11553 -0.349409 12.335 0.109672 17.4804C2.35611 19.2347 4.53317 20.3005 6.6735 20.9978C7.20196 20.2372 7.67327 19.4287 8.0793 18.5766C7.30601 18.2693 6.56536 17.8901 5.86554 17.4499C6.0512 17.3061 6.2328 17.1557 6.40826 17.0009C10.6767 19.0887 15.3144 19.0887 19.5319 17.0009C19.7094 17.1557 19.8909 17.3061 20.0746 17.4499C19.3727 17.8923 18.63 18.2715 17.8567 18.5788C18.2627 19.4287 18.732 20.2394 19.2625 21C21.4049 20.3026 23.584 19.2369 25.8304 17.4804C26.3691 11.5156 24.9102 6.34404 21.9742 1.75875ZM8.66081 14.316C7.37948 14.316 6.32867 13.0651 6.32867 11.5417C6.32867 10.0184 7.35704 8.76528 8.66081 8.76528C9.96462 8.76528 11.0154 10.0162 10.9929 11.5417C10.995 13.0651 9.96462 14.316 8.66081 14.316ZM17.2793 14.316C15.998 14.316 14.9472 13.0651 14.9472 11.5417C14.9472 10.0184 15.9755 8.76528 17.2793 8.76528C18.5831 8.76528 19.6339 10.0162 19.6114 11.5417C19.6114 13.0651 18.5831 14.316 17.2793 14.316Z" fill="white"/>
</svg>
