<svg width="21" height="21" viewBox="0 0 21 21" fill="none" xmlns="http://www.w3.org/2000/svg">
<path d="M15.75 0H5.25C2.36276 0 0 2.36276 0 5.25V15.7505C0 18.637 2.36276 21.0005 5.25 21.0005H15.75C18.6372 21.0005 21 18.637 21 15.7505V5.25C21 2.36276 18.6372 0 15.75 0ZM19.2499 15.7505C19.2499 17.6799 17.6805 19.2504 15.75 19.2504H5.25C3.32037 19.2504 1.75009 17.6799 1.75009 15.7505V5.25C1.75009 3.32011 3.32037 1.75009 5.25 1.75009H15.75C17.6805 1.75009 19.2499 3.32011 19.2499 5.25V15.7505Z" fill="white"/>
<path d="M16.1884 6.12494C16.9132 6.12494 17.5009 5.53731 17.5009 4.81244C17.5009 4.08757 16.9132 3.49994 16.1884 3.49994C15.4635 3.49994 14.8759 4.08757 14.8759 4.81244C14.8759 5.53731 15.4635 6.12494 16.1884 6.12494Z" fill="white"/>
<path d="M10.5 5.25C7.59989 5.25 5.25 7.60014 5.25 10.5C5.25 13.3988 7.59989 15.7505 10.5 15.7505C13.3993 15.7505 15.75 13.3988 15.75 10.5C15.75 7.60014 13.3993 5.25 10.5 5.25ZM10.5 14.0004C8.56719 14.0004 7.00008 12.4333 7.00008 10.5C7.00008 8.56668 8.56719 7.00009 10.5 7.00009C12.4328 7.00009 13.9999 8.56668 13.9999 10.5C13.9999 12.4333 12.4328 14.0004 10.5 14.0004Z" fill="white"/>
</svg>
