<svg width="29" height="21" viewBox="0 0 29 21" fill="none" xmlns="http://www.w3.org/2000/svg">
<path d="M28.427 2.48573C27.3807 2.90814 26.2568 3.19239 25.0771 3.3206C26.2819 2.66463 27.2058 1.62601 27.6409 0.387619C26.5148 0.994889 25.2662 1.43618 23.9367 1.67471C22.8729 0.644044 21.3576 0 19.6804 0C16.4595 0 13.8486 2.37441 13.8486 5.30143C13.8486 5.71688 13.9011 6.12239 13.9995 6.50902C9.15282 6.28837 4.85606 4.17734 1.97843 0.969047C1.47769 1.75224 1.19014 2.66264 1.19014 3.63567C1.19014 5.47437 2.21896 7.0974 3.78351 8.04756C2.82794 8.01974 1.92814 7.7812 1.14204 7.38464C1.14204 7.4075 1.14204 7.42837 1.14204 7.45123C1.14204 10.0204 3.15156 12.1633 5.82037 12.6493C5.33165 12.7706 4.8156 12.8352 4.28315 12.8352C3.90814 12.8352 3.54188 12.8014 3.18655 12.7407C3.92892 14.8468 6.08277 16.3804 8.63459 16.4231C6.63927 17.8454 4.12462 18.6932 1.39131 18.6932C0.921184 18.6932 0.456521 18.6683 -0.000488281 18.6186C2.58085 20.1224 5.64544 21 8.93962 21C19.6673 21 25.5319 12.9216 25.5319 5.91566C25.5319 5.68607 25.5264 5.45748 25.5155 5.22987C26.6558 4.48147 27.6453 3.5482 28.427 2.48573Z" fill="white"/>
</svg>
